<svg xmlns="http://www.w3.org/2000/svg" version="1.1" xmlns:xlink="http://www.w3.org/1999/xlink" xmlns:svgjs="http://svgjs.dev/svgjs" width="1000" height="265" viewBox="0 0 1000 265"><g transform="matrix(1,0,0,1,-0.6060597876882525,-0.2867883293367868)"><svg viewBox="0 0 396 105" data-background-color="#dedede" preserveAspectRatio="xMidYMid meet" height="265" width="1000" xmlns="http://www.w3.org/2000/svg" xmlns:xlink="http://www.w3.org/1999/xlink"><g id="tight-bounds" transform="matrix(1,0,0,1,0.23999967592453686,0.11363311162401146)"><svg viewBox="0 0 395.52 104.77271181041364" height="104.77271181041364" width="395.52"><g><svg viewBox="0 0 655.6149085798696 173.67150049365233" height="104.77271181041364" width="395.52"><g transform="matrix(1,0,0,1,260.09490857986964,53.66094937789062)"><svg viewBox="0 0 395.52 66.3496017378711" height="66.3496017378711" width="395.52"><g id="textblocktransform"><svg viewBox="0 0 395.52 66.3496017378711" height="66.3496017378711" width="395.52" id="textblock"><g><svg viewBox="0 0 395.52 66.3496017378711" height="66.3496017378711" width="395.52"><g transform="matrix(1,0,0,1,0,0)"><svg width="395.52" viewBox="3.200000047683716 -34.349998474121094 207.13999938964844 34.75" height="66.3496017378711" data-palette-color="#374151"><path d="M8.3 0L3.2 0 5.8-33.7 11.9-33.7 16.4-21.4Q17.6-18.25 18.8-14.73 20-11.2 20.6-9.25L20.6-9.25 21.25-7.3Q23.55-14.1 26.3-21.4L26.3-21.4 31-33.7 37.1-33.7 40.2 0 35.1 0 33.9-13.2 32.85-26.7Q30.6-20.35 27.95-13.2L27.95-13.2 23.25-0.65 19.2-0.65 14.65-13.2 10.1-26.5Q10.1-24.3 9.3-13.2L9.3-13.2 8.3 0ZM45.7-17L45.7-17Q45.7-24.85 49.9-29.6 54.1-34.35 61.15-34.35L61.15-34.35Q68.35-34.35 72.5-29.63 76.65-24.9 76.65-17 76.65-9.1 72.47-4.35 68.3 0.4 61.2 0.4L61.2 0.4Q54.15 0.4 49.92-4.35 45.7-9.1 45.7-17ZM53.77-26.18Q51.1-22.8 51.1-17 51.1-11.2 53.85-7.8 56.6-4.4 61.2-4.4L61.2-4.4Q65.95-4.4 68.6-7.75 71.25-11.1 71.25-17L71.25-17Q71.25-22.85 68.57-26.2 65.9-29.55 61.15-29.55L61.15-29.55Q56.45-29.55 53.77-26.18ZM104.1-33.7L109.6-33.7 97.95 0 91.85 0 80.5-33.7 86-33.7 90.3-20.3Q91.7-16 92.85-12.08 94-8.15 94.45-6.4L94.45-6.4 94.95-4.6Q96.55-10.6 99.75-20.3L99.75-20.3 104.1-33.7ZM120.24 0L115.14 0 115.14-33.7 120.24-33.7 120.24 0ZM133.09-14.7L133.09-4.3 147.39-4.3 147.39 0 127.94 0 127.94-33.7 147.14-33.7 147.14-29.4 133.09-29.4 133.09-19 145.54-19 145.54-14.7 133.09-14.7ZM158.89-29.3L158.89-4.35 164.19-4.35Q169.94-4.35 172.94-7.95 175.94-11.55 175.94-17.2L175.94-17.2Q175.94-22.4 172.69-25.85 169.44-29.3 164.04-29.3L164.04-29.3 158.89-29.3ZM153.64 0L153.64-33.7 164.14-33.7Q171.64-33.7 176.44-29.05 181.24-24.4 181.24-17.2L181.24-17.2Q181.24-9.7 176.71-4.85 172.19 0 164.24 0L164.24 0 153.64 0ZM192.14-14.9L192.14-4.25 198.74-4.25Q205.09-4.25 205.09-9.5L205.09-9.5Q205.09-12.05 203.36-13.48 201.64-14.9 198.24-14.9L198.24-14.9 192.14-14.9ZM197.64-29.45L192.14-29.45 192.14-19.1 196.79-19.1Q200.54-19.1 202.36-20.63 204.19-22.15 204.19-24.6L204.19-24.6Q204.19-26.75 202.56-28.1 200.94-29.45 197.64-29.45L197.64-29.45ZM186.99 0L186.99-33.7 198.04-33.7Q203.34-33.7 206.39-31.23 209.44-28.75 209.44-24.7L209.44-24.7Q209.44-21.9 207.86-19.8 206.29-17.7 203.84-17.1L203.84-17.1Q206.59-16.6 208.46-14.55 210.34-12.5 210.34-9.05L210.34-9.05Q210.34-5.05 207.61-2.53 204.89 0 199.94 0L199.94 0 186.99 0Z" opacity="1" transform="matrix(1,0,0,1,0,0)" fill="#374151" class="wordmark-text-0" data-fill-palette-color="primary" id="text-0"></path></svg></g></svg></g></svg></g></svg></g><g><svg viewBox="0 0 244.43135999999998 173.67150049365233" height="173.67150049365233" width="244.43135999999998"><g><svg xmlns="http://www.w3.org/2000/svg" xmlns:xlink="http://www.w3.org/1999/xlink" version="1.1" x="0" y="0" viewBox="10 21.579999923706055 80 56.84098815917969" enable-background="new 0 0 100 100" xml:space="preserve" height="173.67150049365233" width="244.43135999999998" class="icon-icon-0" data-fill-palette-color="accent" id="icon-0"><g fill="#374151" data-fill-palette-color="accent"><g fill="#374151" data-fill-palette-color="accent"><path d="M68.984 60.346c-4.03 0-7.559 2.633-9.499 6.57-1.229-0.947-2.684-1.498-4.242-1.498-1.827 0-3.511 0.754-4.855 2.02-1.739-2.738-4.454-4.504-7.507-4.504-1.177 0-2.305 0.264-3.345 0.744-0.591-0.969-1.653-1.617-2.871-1.617-1.859 0-3.367 1.506-3.367 3.365 0 1.205 0.638 2.26 1.591 2.855-0.325 0.617-0.603 1.275-0.829 1.965-0.263 0.174-0.513 0.371-0.747 0.594-1.199-1.891-3.075-3.109-5.182-3.109-3.62 0-6.558 3.59-6.558 8.018 0 1.479 0.979 2.672 2.187 2.672h8.741c0.088 0 0.174-0.008 0.259-0.02 0.076 0.012 0.154 0.02 0.234 0.02h3.556 3.783 8.88c0.128 0 0.251-0.012 0.374-0.027 0.111 0.016 0.226 0.027 0.341 0.027H60.56c0.163 0 0.325-0.02 0.481-0.055 0.183 0.033 0.365 0.055 0.554 0.055h14.779c2.042 0 3.697-2.021 3.697-4.518C80.071 66.418 75.104 60.346 68.984 60.346z" fill="#374151" data-fill-palette-color="accent"></path><circle cx="68.984" cy="52.255" r="6.8" fill="#374151" data-fill-palette-color="accent"></circle><circle cx="42.881" cy="56.001" r="5.8" fill="#374151" data-fill-palette-color="accent"></circle><circle cx="55.243" cy="59.597" r="4.9" fill="#374151" data-fill-palette-color="accent"></circle><circle cx="28.131" cy="62.943" r="4.0" fill="#374151" data-fill-palette-color="accent"></circle></g><path d="M10 21.58v45h12.254c-0.706-1.094-1.131-2.383-1.131-3.777 0-3.865 3.144-7.01 7.008-7.01 2.629 0 4.921 1.457 6.12 3.604 0.161-0.066 0.326-0.123 0.493-0.176-0.429-1.037-0.669-2.17-0.669-3.361 0-4.855 3.95-8.807 8.806-8.807 3.765 0 6.977 2.379 8.234 5.709 1.201-0.744 2.613-1.182 4.128-1.182 1.458 0 2.82 0.404 3.992 1.098-0.011-0.188-0.028-0.373-0.028-0.564 0-5.391 4.386-9.777 9.777-9.777s9.777 4.387 9.777 9.777c0 2.793-1.184 5.311-3.066 7.094 2.59 1.656 4.684 4.244 5.972 7.373H90v-45H10z" fill="#374151" data-fill-palette-color="accent"></path></g></svg></g></svg></g></svg></g><defs></defs></svg><rect width="395.52" height="104.77271181041364" fill="none" stroke="none" visibility="hidden"></rect></g></svg></g></svg>